<svg xmlns="http://www.w3.org/2000/svg" version="1.1" xmlns:xlink="http://www.w3.org/1999/xlink" width="512" height="512" x="0" y="0" viewBox="0 0 64 64" style="enable-background:new 0 0 512 512" xml:space="preserve" class=""><g><circle cx="38.54" cy="28.572" r="1" fill="#000000" opacity="1" data-original="#000000" class=""></circle><circle cx="34.915" cy="31.509" r="1" fill="#000000" opacity="1" data-original="#000000" class=""></circle><circle cx="40.79" cy="32.572" r="1" fill="#000000" opacity="1" data-original="#000000" class=""></circle><circle cx="37.54" cy="35.572" r="1" fill="#000000" opacity="1" data-original="#000000" class=""></circle><path d="M8.425 41.663c1.22 9.92 11.43 17.66 23.84 17.66s22.62-7.74 23.84-17.66zm3.75 5.77a16.133 16.133 0 0 1-.99-1.94 1 1 0 0 1 1.84-.78 16.051 16.051 0 0 0 .87 1.7 1 1 0 0 1-1.72 1.02zm14.96 9.73a23.183 23.183 0 0 1-12.9-6.94 1.002 1.002 0 0 1 1.49-1.34 21.167 21.167 0 0 0 11.78 6.32.997.997 0 0 1-.37 1.96zM57.255 39.663h-50a1 1 0 0 1 0-2h50a1 1 0 0 1 0 2zM42.575 19.713c-1.44 1.19-2.8 2.31-4.74 3.91a.748.748 0 0 1-1.1-.17 3.607 3.607 0 0 1-.58-2.19 3.873 3.873 0 0 1 2.65-3.27.405.405 0 0 0 .24-.53 6.302 6.302 0 0 0-3.23-3.49 20.027 20.027 0 0 0-3.72-1.29 1.21 1.21 0 0 0-1.08.36l-2.38 2.43a1.732 1.732 0 0 0 .08 2.51 8.24 8.24 0 0 0 2.4 1.73c1.85 1.03 2.94 1.03 3.94 2.1a5.336 5.336 0 0 1 1.28 3.54 1.086 1.086 0 0 1-1.34 1.1 68.153 68.153 0 0 1-7.7-2.53c-3.556-1.105-6.759-1.4-10.91-5.45-.919-.92-2.011-.69-3.64-.69a.41.41 0 0 0 .01-.11v-12a.22.22 0 0 0-.01-.08c4.789-.121 9.646-.376 19.15.01a5.374 5.374 0 0 1 3.21 1.06l6.11 4.51a2.859 2.859 0 0 1 1.01 1.43c.3 1.01.76 2.5 1.25 4.12a2.793 2.793 0 0 1-.9 2.99z" fill="#000000" opacity="1" data-original="#000000" class=""></path><rect width="5" height="14" x="5.755" y="4.677" rx="1" fill="#000000" opacity="1" data-original="#000000" class=""></rect></g></svg>