<svg xmlns="http://www.w3.org/2000/svg" version="1.1" xmlns:xlink="http://www.w3.org/1999/xlink" width="512" height="512" x="0" y="0" viewBox="0 0 45 60" style="enable-background:new 0 0 512 512" xml:space="preserve" class=""><g><g fill="none" fill-rule="nonzero"><path fill="#02a9f4" d="M36 12a6 6 0 0 0 2.051 4.517l2.879 2.517A9.011 9.011 0 0 1 44 25.8V50a9 9 0 0 1-9 9H10a9 9 0 0 1-9-9V25.8a9.011 9.011 0 0 1 3.07-6.77l2.879-2.517A6 6 0 0 0 9 12V8h27z" opacity="1" data-original="#02a9f4" class=""></path><path fill="#0377bc" d="m40.93 19.034-2.879-2.517A6 6 0 0 1 36 12V8h-3v4a6 6 0 0 0 2.051 4.517l2.879 2.517A9.011 9.011 0 0 1 41 25.8V50a9 9 0 0 1-9 9h3a9 9 0 0 0 9-9V25.8a9.011 9.011 0 0 0-3.07-6.766z" opacity="1" data-original="#0377bc"></path><rect width="33" height="7" x="6" y="1" fill="#ffdc00" rx="2" opacity="1" data-original="#ffdc00"></rect><path fill="#fec108" d="M37 1h-3a2 2 0 0 1 2 2v3a2 2 0 0 1-2 2h3a2 2 0 0 0 2-2V3a2 2 0 0 0-2-2z" opacity="1" data-original="#fec108"></path><path fill="#a4c400" d="M25.091 50.118A40.632 40.632 0 0 1 13.226 54.9a5.232 5.232 0 0 1-2.007-10.27c.246-.051 13.007-2.811 19.108-14.389a5.232 5.232 0 1 1 9.257 4.88 38.031 38.031 0 0 1-14.493 14.997z" opacity="1" data-original="#a4c400"></path><path fill="#90ac00" d="M33.457 27.677a5.227 5.227 0 0 1 3.127 7.448 38.031 38.031 0 0 1-14.493 14.993A41.869 41.869 0 0 1 10.8 54.777a5.166 5.166 0 0 0 2.423.127 40.632 40.632 0 0 0 11.865-4.786 38.031 38.031 0 0 0 14.496-14.993 5.233 5.233 0 0 0-6.127-7.448z" opacity="1" data-original="#90ac00"></path><path fill="#ffeb3a" d="M22.08 32.72a8.623 8.623 0 0 1-10.839 3.641 1.79 1.79 0 0 0-1.973.371c-.7.7-1.836.7-2.536 0l-.464-.464c-.7-.7-.7-1.836 0-2.536l.026-.026a1.8 1.8 0 0 0 .373-1.972 8.606 8.606 0 1 1 15.413.986z" opacity="1" data-original="#ffeb3a"></path><path fill="#fdd834" d="M20.65 22.3a8.592 8.592 0 0 0-7.565-2.34A8.6 8.6 0 0 1 13.1 36.9a8.6 8.6 0 0 0 7.55-14.6z" opacity="1" data-original="#fdd834"></path><g fill="#000"><path d="M40 49a1 1 0 0 0-1 1 4 4 0 0 1-4 4 1 1 0 0 0 0 2 6.006 6.006 0 0 0 6-6 1 1 0 0 0-1-1z" fill="#000000" opacity="1" data-original="#000000" class=""></path><path d="M40 6V3a3 3 0 0 0-3-3H8a3 3 0 0 0-3 3v3a3 3 0 0 0 3 3v3a5 5 0 0 1-1.709 3.764l-2.88 2.518A10.006 10.006 0 0 0 0 25.8V50c.006 5.52 4.48 9.994 10 10h25c5.52-.006 9.994-4.48 10-10V25.8a10.008 10.008 0 0 0-3.412-7.523l-2.879-2.517A5 5 0 0 1 37 12V9a3 3 0 0 0 3-3zM7 6V3a1 1 0 0 1 1-1h29a1 1 0 0 1 1 1v3a1 1 0 0 1-1 1H8a1 1 0 0 1-1-1zm28 5H19a1 1 0 0 0 0 2h16.081a6.987 6.987 0 0 0 2.312 4.27l2.878 2.516A8.007 8.007 0 0 1 43 25.8V50a8.009 8.009 0 0 1-8 8H10a8.009 8.009 0 0 1-8-8V25.8a8 8 0 0 1 2.729-6.017l2.878-2.517A6.987 6.987 0 0 0 9.919 13H14a1 1 0 0 0 0-2h-4V9h25z" fill="#000000" opacity="1" data-original="#000000" class=""></path><path d="M11.025 43.653a6.232 6.232 0 1 0 2.389 12.233A41.251 41.251 0 0 0 25.6 50.979a38.766 38.766 0 0 0 14.869-15.387 6.233 6.233 0 0 0-11.027-5.813C23.57 40.923 11.14 43.629 11.025 43.653zm20.187-12.941a4.232 4.232 0 1 1 7.488 3.947 36.785 36.785 0 0 1-14.116 14.6 39.742 39.742 0 0 1-11.547 4.665 4.232 4.232 0 0 1-4.958-3.352 4.241 4.241 0 0 1 3.345-4.957c.546-.115 13.476-2.933 19.788-14.903z" fill="#000000" opacity="1" data-original="#000000" class=""></path><circle cx="12" cy="49" r="1" fill="#000000" opacity="1" data-original="#000000" class=""></circle><circle cx="18" cy="50" r="1" fill="#000000" opacity="1" data-original="#000000" class=""></circle><circle cx="21" cy="45" r="1" fill="#000000" opacity="1" data-original="#000000" class=""></circle><circle cx="27" cy="44" r="1" fill="#000000" opacity="1" data-original="#000000" class=""></circle><circle cx="29" cy="39" r="1" fill="#000000" opacity="1" data-original="#000000" class=""></circle><circle cx="34" cy="37" r="1" fill="#000000" opacity="1" data-original="#000000" class=""></circle><circle cx="33" cy="32" r="1" fill="#000000" opacity="1" data-original="#000000" class=""></circle><path d="M13.967 18.844a9.592 9.592 0 0 0-8.224 13.273.814.814 0 0 1-.182.908 2.8 2.8 0 0 0 0 3.95l.464.464a2.8 2.8 0 0 0 3.95 0 .794.794 0 0 1 .875-.157 9.656 9.656 0 0 0 12.1-4.061 9.672 9.672 0 0 0-1.565-11.6 8.413 8.413 0 0 1 4.759-1.087 1.003 1.003 0 0 0 .144-2c-.953-.05-1.909.01-2.848.182l.651-.837a1 1 0 1 0-1.578-1.228l-.652.837a12.341 12.341 0 0 0-.522-2.805 1 1 0 0 0-1.9.63 8.41 8.41 0 0 1 .11 4.893 9.664 9.664 0 0 0-5.582-1.362zm7.249 13.373a7.654 7.654 0 0 1-9.584 3.224 2.784 2.784 0 0 0-3.071.584.8.8 0 0 1-1.122 0l-.464-.464A.8.8 0 0 1 7 34.413a2.8 2.8 0 0 0 .59-3.063 7.606 7.606 0 1 1 13.625.867z" fill="#000000" opacity="1" data-original="#000000" class=""></path><path d="M14.616 22.82a5.614 5.614 0 0 0-5.575 6.295 1 1 0 0 0 1.986-.239 3.61 3.61 0 0 1 3.589-4.056 1 1 0 0 0 0-2z" fill="#000000" opacity="1" data-original="#000000" class=""></path></g></g></g></svg>