<svg xmlns="http://www.w3.org/2000/svg" version="1.1" xmlns:xlink="http://www.w3.org/1999/xlink" width="512" height="512" x="0" y="0" viewBox="0 0 50 50" style="enable-background:new 0 0 512 512" xml:space="preserve" class=""><g><path d="M23.4 36.2c-3.3.6-6.4-1.6-6.9-4.8l-.1-.8.9-.1c1.4-.2 2.8.1 4 .8-.1 1.8.7 3.5 2.1 4.9zM27.5 30.9c0 1.6-.6 3-1.8 4.2l-.6.6-.6-.6c-1.1-1.1-1.8-2.6-1.8-4.2s.6-3.1 1.8-4.2l.6-.6.6.6c1.1 1.2 1.8 2.7 1.8 4.2zM33 30.4l.9.1-.1.8c-.5 3.2-3.6 5.4-6.9 4.9h-.1l.1-.1c1.4-1.4 2.1-3.1 2.2-5 1.1-.6 2.5-.9 3.9-.7z" fill="#000000" opacity="1" data-original="#000000" class=""></path><path d="M1.7 21.1C1.7 33.8 12.1 44 25 44s23.3-10.3 23.3-22.9zm33.5 10.5c-.6 3.7-3.8 6.3-7.5 6.3-.4 0-.8 0-1.2-.1l-.7-.1v2.4c0 .4-.3.8-.8.8-.4 0-.8-.4-.8-.8v-2.4l-.7.1c-.4.1-.8.1-1.2.1-3.7 0-6.9-2.6-7.5-6.3l-.1-1.6c0-.2 0-.4.1-.6s.3-.3.5-.3l1.6-.2c1.5-.2 3 0 4.3.6.3-1.4 1-2.7 2.1-3.8l1.2-1.1c.3-.3.8-.3 1.1 0l1.2 1.1c1.1 1.1 1.8 2.4 2.1 3.8 1.3-.6 2.8-.8 4.3-.6l1.6.3c.2 0 .4.1.5.3s.2.4.1.6z" fill="#000000" opacity="1" data-original="#000000" class=""></path><path d="M35.1 43.5v2.4c0 1.7-1.4 3.1-3.2 3.1H18.3c-1.7 0-3.2-1.4-3.2-3.1v-2.3c3 1.3 6.4 2 9.9 2 3.6 0 7-.7 10.1-2.1zM48.3 9.8c0 .5-.1.9-.3 1.4l-3.7 8.4H32.2l9.7-12c1.1-1.4 3.1-1.8 4.7-.8 1.1.6 1.7 1.8 1.7 3zM12.2 17.5c-.7 0-1.5-.2-2.4-.5v-2l.8-.6c.1.9.5 2 1.6 3.1zM15.2 7.4c-2.4 1.4-4 3.2-4.5 5l-.9.7v-2.4l1.9-1.5c.3-.4.4-.9.1-1.2s-.8-.4-1.1-.1l-.9.7V6.3c0-.4-.4-.8-.8-.8s-.8.4-.8.8v2.4l-.9-.8c-.3-.3-.8-.2-1.1.1s-.2.8.1 1.1l1.9 1.5V13l-3.3-2.5c-.3-.3-.8-.2-1.1.1-.2.4-.2.9.2 1.2L8.2 15v2C-2.7 20.5 1.8 2.6 9 1c2.6.6 4.9 3.3 6.2 6.4zM8.2 17h1.5v2.6H8.2z" fill="#000000" opacity="1" data-original="#000000" class=""></path><path d="M25.1 19.6h-8.6l-.3-.6 1.5-1.3 5.3 1h.1c.4 0 .7-.3.8-.6.1-.4-.2-.8-.6-.9l-4.1-.8 1.8-1.6 2.4.4h.1c.4 0 .7-.3.8-.7s-.2-.8-.6-.9l-1.2-.2 1.8-1.6c.3-.3.3-.8.1-1.1-.3-.3-.8-.4-1.1-.1l-1.8 1.6-.1-1.2c0-.4-.4-.8-.8-.7-.4 0-.8.4-.7.8l.1 2.4-1.8 1.6-.4-4.1c0-.4-.4-.8-.8-.7-.4 0-.7.4-.7.8l.4 5.3-1.5 1.3c-10-5.6 6.5-14.3 12.5-10 1.8 3.2.1 8.6-2.6 11.9z" fill="#000000" opacity="1" data-original="#000000" class=""></path><path d="m16.2 19-.7.6h-2.4l2.1-1.8z" fill="#000000" opacity="1" data-original="#000000" class=""></path></g></svg>