<svg xmlns="http://www.w3.org/2000/svg" version="1.1" xmlns:xlink="http://www.w3.org/1999/xlink" width="11" height="11" x="0" y="0" viewBox="0 0 512.002 512.002" style="enable-background:new 0 0 512 512" xml:space="preserve" class=""><g><path d="M504.823 198.54a24.037 24.037 0 0 0-11.84-6.463 9.143 9.143 0 0 1-6.492-12.286 510.932 510.932 0 0 0 15.312-44.795 7.927 7.927 0 0 1 .241-3.393c11.383-36.076 1.746-75.489-25-102.241-41.492-39.857-107.297-39.018-147.759 1.884a106.342 106.342 0 0 0-24.321 36.919c-.036.214-.08.429-.134.643-1.375 5.821-2.946 12.08-5.125 18.563a10.06 10.06 0 0 1-.286 1.134 315.47 315.47 0 0 1-79.348 129.705 318.822 318.822 0 0 1-130.777 78.635c-.36.115-.727.208-1.098.277-6.759 2.223-13.259 3.822-18.768 5.107-.205.045-.42.089-.634.116a107.499 107.499 0 0 0-37.295 24.143 104.874 104.874 0 0 0-31.5 74.884 99.779 99.779 0 0 0 29.598 71.393 104.024 104.024 0 0 0 101.259 25.392 9.132 9.132 0 0 1 10.991 5.518 13.277 13.277 0 0 0 16.17 7.741c6.594-1.913 10.552-8.636 9.027-15.33a9.133 9.133 0 0 1 5.786-10.714 511.646 511.646 0 0 0 68.384-30.536 9.165 9.165 0 0 1 11.839 2.839c7.357 10.383 21.4 13.475 32.438 7.143l.018-.018c11.463-6.558 15.505-21.124 9.063-32.652a9.15 9.15 0 0 1 2.696-11.991 532.877 532.877 0 0 0 68.661-57.554 555.351 555.351 0 0 0 22.884-24.08 9.167 9.167 0 0 1 12.313-1.205c10.588 7.955 25.568 6.13 33.937-4.134a23.954 23.954 0 0 0-3.741-34.018 9.143 9.143 0 0 1-1.857-12.402 540.34 540.34 0 0 0 30.036-48.661 9.153 9.153 0 0 1 13.465-2.973c9.768 7.107 23.242 6.11 31.857-2.357a23.994 23.994 0 0 0 0-34.233zM144.581 428.996c-18.979 18.702-49.458 18.702-68.438 0a9.143 9.143 0 0 1 12.875-12.983c11.84 11.661 30.847 11.661 42.688 0a9.143 9.143 0 0 1 12.875 12.983zm50.054-73.036a9.139 9.139 0 0 1-12.928.053c-11.837-11.661-30.842-11.661-42.679 0a9.144 9.144 0 0 1-12.875-12.983c18.971-18.714 49.458-18.714 68.429 0a9.139 9.139 0 0 1 .053 12.93zm46.786 18.34a9.143 9.143 0 0 1 0-18.286c16.544.073 30.025-13.26 30.134-29.804a9.143 9.143 0 0 1 18.286 0c-.123 26.638-21.783 48.15-48.42 48.09zm.196-79.277a9.143 9.143 0 0 1 0-18.286c16.547.077 30.033-13.257 30.143-29.804a9.143 9.143 0 0 1 18.286 0c-.123 26.641-21.788 48.154-48.429 48.09zm100.509-168.482a9.144 9.144 0 0 1 12.875 12.983 29.564 29.564 0 0 0 0 42.098 9.143 9.143 0 0 1-12.875 12.983 47.846 47.846 0 0 1 0-68.064zm6.536 163.277a9.143 9.143 0 0 1 0-18.286c16.549.073 30.034-13.264 30.143-29.812a9.143 9.143 0 0 1 18.286 0c-.123 26.642-21.787 48.158-48.429 48.098zm77.768-142.429a9.143 9.143 0 0 1-12.875-12.983 29.589 29.589 0 0 0 0-42.098 9.143 9.143 0 0 1 12.875-12.983 47.867 47.867 0 0 1 0 68.064z" fill="#000000" opacity="1" data-original="#000000" class=""></path></g></svg>