<svg xmlns="http://www.w3.org/2000/svg" version="1.1" xmlns:xlink="http://www.w3.org/1999/xlink" width="30" height="30" x="0" y="0" viewBox="0 0 55 55" style="enable-background:new 0 0 512 512" xml:space="preserve" class=""><g><path d="M48.366 18.016a.896.896 0 0 1-.026 1.4c-1.52 1.14-2.355 2.652-4.924 2.652-3.982 0-3.982-3.656-7.975-3.656-3.96 0-3.96 3.656-7.942 3.656s-3.982-3.656-7.953-3.656c-3.982 0-3.982 3.656-7.964 3.656-2.579 0-3.416-1.525-4.922-2.654a.896.896 0 0 1-.026-1.4l6.218-5.215.401-.274h28.492l.401.274z" fill="#000000" opacity="1" data-original="#000000" class=""></path><path d="M46.367 23.43v17.53H8.627V23.43c.89.43 1.87.64 2.96.64 2.77 0 4.25-1.36 5.33-2.36.91-.84 1.42-1.3 2.63-1.3 1.2 0 1.71.46 2.62 1.3 1.08 1 2.56 2.36 5.33 2.36 2.78 0 4.26-1.37 5.34-2.36.91-.84 1.41-1.3 2.6-1.3 1.22 0 1.73.46 2.65 1.31 1.08.99 2.56 2.35 5.33 2.35 1.08 0 2.06-.21 2.95-.64zM8.627 42.96h37.74v3.32c0 2.88-2.34 5.22-5.22 5.22h-27.3c-2.88 0-5.22-2.34-5.22-5.22zM37.567 3.5h-20.14c-2.3 0-4.17 1.87-4.17 4.17v2.85h5.06V8.7c0-.55.45-1 1-1s1 .45 1 1v1.82h6.18V8.7c0-.55.45-1 1-1 .56 0 1 .45 1 1v1.82h6.19V8.7c0-.55.45-1 1-1s1 .45 1 1v1.82h5.06V7.67c0-2.3-1.87-4.17-4.18-4.17z" fill="#000000" opacity="1" data-original="#000000" class=""></path></g></svg>