<svg xmlns="http://www.w3.org/2000/svg" version="1.1" xmlns:xlink="http://www.w3.org/1999/xlink" width="512" height="512" x="0" y="0" viewBox="0 0 511.312 511.312" style="enable-background:new 0 0 512 512" xml:space="preserve" class=""><g><path d="M203.533 238.978h-14.875M316.943 238.978h-98.41M38.658 503.812h359.875M181.033 444.812h15M211.033 444.812h15M241.033 444.812h15M385.128 323.183c-11.397-34.611-35.826-64.202-68.185-84.206l12.342-26.659" style="stroke-width:15;stroke-miterlimit:10;" fill="none" stroke="#000000" stroke-width="15" stroke-miterlimit="10" data-original="#000000" opacity="1" class=""></path><path d="M284.077 183.232H94.389l25.799 55.705c-45.505 28.103-75.345 75.159-75.345 128.477 0 58.674 36.135 109.767 89.519 136.359h168.343c53.383-26.592 89.519-77.685 89.519-136.359 0-9.992-1.048-19.765-3.051-29.234" style="stroke-width:15;stroke-miterlimit:10;" fill="none" stroke="#000000" stroke-width="15" stroke-miterlimit="10" data-original="#000000" opacity="1" class=""></path><path d="M372.813 295.794c-23.315 9.916-35.016 26.799-74.857 26.799-56.399 0-56.399-33.84-112.799-33.84-56.398 0-56.398 33.84-112.796 33.84-7.453 0-13.914-.596-19.658-1.622M122.375 394.43c-12.256 7.031-26.039 13.146-50.014 13.146-8.616 0-15.911-.793-22.297-2.131M391.984 375.199c-38.512 6.491-44.698 32.377-94.029 32.377-56.399 0-56.399-33.84-112.799-33.84-23.88 0-37.649 6.067-49.869 13.063M279.566 46.908C298.796 22.885 328.368 7.5 361.533 7.5c57.955 0 104.938 46.982 104.938 104.938s-46.982 104.938-104.938 104.938-104.938-46.982-104.938-104.938c0-19.3 5.21-37.384 14.302-52.92" style="stroke-width:15;stroke-miterlimit:10;" fill="none" stroke="#000000" stroke-width="15" stroke-miterlimit="10" data-original="#000000" opacity="1" class=""></path><path d="m361.533 44.543 20.198 40.927 45.166 6.563-32.682 31.857 7.715 44.983-40.397-21.238-40.398 21.238 7.715-44.983-32.682-31.857 45.166-6.563z" style="stroke-width:15;stroke-miterlimit:10;" fill="none" stroke="#000000" stroke-width="15" stroke-miterlimit="10" data-original="#000000" opacity="1" class=""></path></g></svg>