<svg xmlns="http://www.w3.org/2000/svg" version="1.1" xmlns:xlink="http://www.w3.org/1999/xlink" width="512" height="512" x="0" y="0" viewBox="0 0 510 510" style="enable-background:new 0 0 512 512" xml:space="preserve" fill-rule="evenodd" class=""><g><path d="m403.685 310.855-71.505 41.283-15.064-8.698 71.504-41.283zm25.374 14.65-75.504 43.591a7.96 7.96 0 0 0-2.929 2.929 7.957 7.957 0 0 0-1.071 4.093v25.845l-9.375-5.413v-26.514a6.999 6.999 0 0 1 3.5-6.062l76.005-43.881zm31.065 17.935-71.504 41.282-15.065-8.698 71.504-41.282zM396.62 481.144v-82.565l71.504-41.283v82.565zm-87.505-123.848 15.065 8.698v35.175a8 8 0 0 0 4 6.929l25.375 14.649a8 8 0 0 0 12-6.929v-25.937l15.065 8.698v82.565l-71.505-41.283zM190.176 343.44l-71.505 41.282-15.065-8.698 71.505-41.282zm-56.44-32.585-71.504 41.283-15.065-8.698 71.504-41.283zm25.374 14.65-75.503 43.591a7.96 7.96 0 0 0-2.929 2.929 7.965 7.965 0 0 0-1.072 3.999l.001 25.939-9.375-5.413v-26.514a6.999 6.999 0 0 1 3.5-6.062l76.005-43.881zM39.167 357.296l15.065 8.698v35.175a8 8 0 0 0 4 6.929l25.375 14.649a8 8 0 0 0 12-6.929v-25.937l15.064 8.698v82.565l-71.504-41.283zm87.504 123.848v-82.565l71.505-41.283v82.565zm220.212-358.255-22.78 13.152-93.238-53.83 22.781-13.152zm-163.694-13.153 93.237 53.83-22.78 13.153-93.238-53.83zm31.676-18.287 97.738 56.428a7.001 7.001 0 0 1 3.5 6.062v36.398l-15.677 9.051v-35.822a7.955 7.955 0 0 0-1.072-3.999 7.95 7.95 0 0 0-2.928-2.929l-97.237-56.139zm46.781 206.786v-107.66l22.78-13.152v35.82a8 8 0 0 0 12 6.929l31.677-18.287a8 8 0 0 0 4-6.929v-45.059l22.78-13.152v107.66zm-109.238-161.49 93.238 53.83v107.66l-93.238-53.83zM102.036 22.672c0-4.416 3.584-8 8-8 4.415 0 8 3.584 8 8v21.009c0 4.415-3.585 8-8 8-4.416 0-8-3.585-8-8zm50.894 34.894c4.415 0 8 3.585 8 8s-3.585 8-8 8h-21.01c-4.415 0-8-3.585-8-8s3.585-8 8-8zm-34.894 50.894c0 4.416-3.585 8-8 8-4.416 0-8-3.584-8-8V87.451c0-4.415 3.584-8 8-8 4.415 0 8 3.585 8 8zM67.141 73.566c-4.415 0-8-3.585-8-8s3.585-8 8-8h21.01c4.415 0 8 3.585 8 8s-3.585 8-8 8zm360.798 74.778c0-4.415 3.584-8 8-8 4.415 0 8 3.585 8 8v21.01c0 4.415-3.585 8-8 8-4.416 0-8-3.585-8-8zm50.894 34.895c4.415 0 8 3.584 8 8 0 4.415-3.585 8-8 8h-21.009c-4.416 0-8-3.585-8-8 0-4.416 3.584-8 8-8zm-34.894 50.894c0 4.415-3.585 8-8 8-4.416 0-8-3.585-8-8v-21.009c0-4.416 3.584-8 8-8 4.415 0 8 3.584 8 8zm-50.895-34.894c-4.415 0-8-3.585-8-8 0-4.416 3.585-8 8-8h21.01c4.415 0 8 3.584 8 8 0 4.415-3.585 8-8 8zm-8-184.239c0-4.415 3.585-8 8-8 4.416 0 8 3.585 8 8v21.009c0 4.416-3.584 8-8 8-4.415 0-8-3.584-8-8zm50.895 34.894c4.415 0 8 3.585 8 8 0 4.416-3.585 8-8 8h-21.01c-4.415 0-8-3.584-8-8 0-4.415 3.585-8 8-8zm-34.895 50.895c0 4.415-3.584 8-8 8-4.415 0-8-3.585-8-8v-21.01c0-4.415 3.585-8 8-8 4.416 0 8 3.585 8 8zM350.15 65.894c-4.415 0-8-3.584-8-8 0-4.415 3.585-8 8-8h21.01c4.415 0 8 3.585 8 8 0 4.416-3.585 8-8 8z" fill="#000000" opacity="1" data-original="#000000" class=""></path></g></svg>