<svg xmlns="http://www.w3.org/2000/svg" version="1.1" xmlns:xlink="http://www.w3.org/1999/xlink" width="30" height="30" x="0" y="0" viewBox="0 0 64 64" style="enable-background:new 0 0 512 512" xml:space="preserve" class=""><g><path d="M53.716 16.907a1 1 0 0 0-.995-.907h-6.08l4.465 48H57a1 1 0 0 0 .996-1.093ZM18 12a9 9 0 1 1 18 0v4h2v-4a11 11 0 1 0-22 0v4h2Z" fill="#000000" opacity="1" data-original="#000000" class=""></path><path d="M28.413 5.144A10.94 10.94 0 0 0 26 12v2h2v-2a8.957 8.957 0 0 1 2.409-6.108 6.945 6.945 0 0 0-1.996-.748ZM37 1a10.947 10.947 0 0 0-2.602.324 13.09 13.09 0 0 1 1.99 1.707C36.59 3.017 36.792 3 37 3a9.01 9.01 0 0 1 9 9v2h2v-2A11.012 11.012 0 0 0 37 1ZM23.666 47h-1v2h1a1 1 0 0 0 0-2Z" fill="#000000" opacity="1" data-original="#000000" class=""></path><path d="M44.632 16H38v5h1a1 1 0 0 1 0 2h-4a1 1 0 0 1 0-2h1v-5H18v5h1a1 1 0 0 1 0 2h-4a1 1 0 1 1 0-2h1v-5h-5.72a1 1 0 0 0-.996.907l-4.279 46A1 1 0 0 0 6 64h43.097ZM18 49a1 1 0 0 1 0 2h-3v3a1 1 0 0 1-2 0v-8a1 1 0 0 1 1-1h4a1 1 0 0 1 0 2h-3v2Zm-2.666-11h1.333a.334.334 0 0 0 .333-.333V36h-.334a1 1 0 0 1 0-2H18a1 1 0 0 1 1 1v2.667A2.336 2.336 0 0 1 16.666 40h-1.333A2.336 2.336 0 0 1 13 37.667v-5.334A2.336 2.336 0 0 1 15.334 30h1.333A2.336 2.336 0 0 1 19 32.333a1 1 0 0 1-2 0 .334.334 0 0 0-.334-.333h-1.333a.334.334 0 0 0-.333.333v5.334a.334.334 0 0 0 .334.333Zm11.04 15.293a1 1 0 1 1-1.414 1.414l-2.294-2.293V54a1 1 0 0 1-2 0v-8a1 1 0 0 1 1-1h2a2.992 2.992 0 0 1 .376 5.962ZM25.75 34a1 1 0 0 1 0 2h-3v2h3a1 1 0 0 1 0 2h-4a1 1 0 0 1-1-1v-8a1 1 0 0 1 1-1h4a1 1 0 0 1 0 2h-3v2ZM28 31a1 1 0 0 1 1-1h4a1 1 0 0 1 0 2h-1v7a1 1 0 0 1-2 0v-7h-1a1 1 0 0 1-1-1Zm5.333 18a1 1 0 0 1 0 2h-3v2h3a1 1 0 0 1 0 2h-4a1 1 0 0 1-1-1v-8a1 1 0 0 1 1-1h4a1 1 0 0 1 0 2h-3v2Zm2.96-16.707 2-2A1 1 0 0 1 40 31v8a1 1 0 0 1-2 0v-5.586l-.293.293a1 1 0 0 1-1.414-1.414ZM41 49a1 1 0 0 1 0 2h-3v2h3a1 1 0 0 1 0 2h-4a1 1 0 0 1-1-1v-8a1 1 0 0 1 1-1h4a1 1 0 0 1 0 2h-3v2Z" fill="#000000" opacity="1" data-original="#000000" class=""></path></g></svg>