<svg xmlns="http://www.w3.org/2000/svg" version="1.1" xmlns:xlink="http://www.w3.org/1999/xlink" width="30" height="30" x="0" y="0" viewBox="0 0 41 56" style="enable-background:new 0 0 512 512" xml:space="preserve" class="hovered-paths"><g><g fill="#000" fill-rule="nonzero"><path d="M5.439 34.025a.8.8 0 0 0 1.122 0 2.784 2.784 0 0 1 3.071-.584 7.611 7.611 0 0 0 8.32-12.425 7.551 7.551 0 0 0-5.852-2.177A7.592 7.592 0 0 0 5.59 29.35 2.8 2.8 0 0 1 5 32.413a.8.8 0 0 0-.026 1.148zm2.744-11.039a5.579 5.579 0 0 1 4.433-2.166 1 1 0 0 1 0 2 3.61 3.61 0 0 0-3.589 4.056 1 1 0 0 1-1.986.239 5.593 5.593 0 0 1 1.142-4.129z" fill="#000000" opacity="1" data-original="#000000" class="hovered-path"></path><rect width="31" height="5" x="5" rx="1" fill="#000000" opacity="1" data-original="#000000" class="hovered-path"></rect><path d="M41 48V23.8a8.007 8.007 0 0 0-2.729-6.018l-2.878-2.512A6.987 6.987 0 0 1 33.081 11H17a1 1 0 0 1 0-2h16V7H8v2h4a1 1 0 0 1 0 2H7.919a6.987 6.987 0 0 1-2.312 4.27l-2.878 2.517A8 8 0 0 0 0 23.8V48a8.009 8.009 0 0 0 8 8h25a8.009 8.009 0 0 0 8-8zM3.561 31.025a.814.814 0 0 0 .182-.908 9.588 9.588 0 0 1 13.8-11.91 8.41 8.41 0 0 0-.11-4.893 1 1 0 0 1 1.9-.63c.282.912.457 1.853.522 2.805l.652-.837a1 1 0 1 1 1.578 1.228l-.651.837a12.216 12.216 0 0 1 2.848-.182 1.003 1.003 0 1 1-.144 2 8.413 8.413 0 0 0-4.759 1.087 9.672 9.672 0 0 1 1.565 11.6 9.656 9.656 0 0 1-12.094 4.06.794.794 0 0 0-.875.157 2.8 2.8 0 0 1-3.95 0l-.464-.464a2.8 2.8 0 0 1 0-3.95zm7.853 22.861a6.232 6.232 0 0 1-2.389-12.233c.115-.024 12.545-2.73 18.417-13.874a6.233 6.233 0 0 1 11.027 5.813A38.766 38.766 0 0 1 23.6 48.979a41.251 41.251 0 0 1-12.186 4.907zM33 54a1 1 0 0 1 0-2 4 4 0 0 0 4-4 1 1 0 0 1 2 0 6.006 6.006 0 0 1-6 6z" fill="#000000" opacity="1" data-original="#000000" class="hovered-path"></path><path d="M37 29.434a4.232 4.232 0 0 0-7.787-.722C22.9 40.682 9.97 43.5 9.423 43.613a4.232 4.232 0 0 0-1.56 7.66 4.2 4.2 0 0 0 3.173.649 39.742 39.742 0 0 0 11.547-4.665A36.785 36.785 0 0 0 36.7 32.659a4.2 4.2 0 0 0 .3-3.225zM10 48a1 1 0 1 1 0-2 1 1 0 0 1 0 2zm6 1a1 1 0 1 1 0-2 1 1 0 0 1 0 2zm3-5a1 1 0 1 1 0-2 1 1 0 0 1 0 2zm6-1a1 1 0 1 1 0-2 1 1 0 0 1 0 2zm2-5a1 1 0 1 1 0-2 1 1 0 0 1 0 2zm3-8a1 1 0 1 1 2 0 1 1 0 0 1-2 0zm2 6a1 1 0 1 1 0-2 1 1 0 0 1 0 2z" fill="#000000" opacity="1" data-original="#000000" class="hovered-path"></path></g></g></svg>